<svg xmlns="http://www.w3.org/2000/svg" viewBox="0 0 64 64">
  <defs>
    <radialGradient id="g" cx="30%" cy="25%" r="85%">
      <stop offset="0" stop-color="#22d3ee"/>
      <stop offset="0.55" stop-color="#14f195"/>
      <stop offset="1" stop-color="#07111f"/>
    </radialGradient>
    <linearGradient id="r" x1="0" y1="0" x2="1" y2="1">
      <stop offset="0" stop-color="#e6eef8" stop-opacity="0.85"/>
      <stop offset="1" stop-color="#e6eef8" stop-opacity="0.25"/>
    </linearGradient>
  </defs>
  <rect width="64" height="64" rx="16" fill="url(#g)"/>
  <!-- subtle network -->
  <g fill="none" stroke="rgba(230,238,248,0.22)" stroke-width="2" stroke-linecap="round">
    <path d="M16 22 L28 16 L44 22 L48 38 L34 48 L18 40 Z"/>
    <path d="M28 16 L34 48"/>
    <path d="M44 22 L18 40"/>
  </g>
  <g>
    <circle cx="16" cy="22" r="3.6" fill="#22d3ee"/>
    <circle cx="28" cy="16" r="3.6" fill="#14f195"/>
    <circle cx="44" cy="22" r="3.6" fill="#22d3ee"/>
    <circle cx="48" cy="38" r="3.6" fill="#14f195"/>
    <circle cx="34" cy="48" r="3.6" fill="#22d3ee"/>
    <circle cx="18" cy="40" r="3.6" fill="#14f195"/>
  </g>
  <!-- monogram -->
  <path d="M24 46V18h15.5c5.2 0 8.5 2.9 8.5 7.6 0 3.4-1.7 5.8-4.8 6.9 3.5 1 5.6 3.6 5.6 7.4 0 5.3-3.7 8.1-9.5 8.1H24Zm7-16h7.7c2.4 0 3.7-1 3.7-3 0-2-1.4-3-3.7-3H31v6Zm0 10h8.5c2.8 0 4.2-1.1 4.2-3.3 0-2.2-1.4-3.4-4.2-3.4H31v6.7Z"
        fill="url(#r)"/>
</svg>

